#!OML:ASF F:\VICON\USERDATA\INSTALL\rory3\rory3.ASF
:FULLY-SPECIFIED
:DEGREES
61
root 0.6063899579265621 17.70894759879312 34.28079986764321 -2.526088787967318 -4.45039485633467 -3.855160869726132
lfemur -25.54902331593925 -4.02360596769754 -14.597971929411013
ltibia 19.270633384505565
lfoot -1.4961648727608825 -1.5167061218931
ltoes -1.6238770574652948
rfemur 7.406375821706419 4.189020277108993 30.07130188473016
rtibia 36.04354433404492
rfoot -12.801653390667068 0.739441839065063
rtoes -7.047751166745638
lowerback 8.437860811387111 2.2534435575937812 4.643817649739756
upperback -0.11850034480105273 3.5634953872836554 0.9373051931081318
thorax -4.876030400698187 1.6743765937942852 -2.4105154729056464
lowerneck -16.302011494193106 -2.932222195904273 -2.243000479747395
upperneck 21.79953928401491 -3.6754768599870786 1.0798308176256257
head 9.567966472381116 -1.7890519998886123 0.3783101239846075
lclavicle 1.466906584622956e-16 2.3677067668468354e-16
lhumerus -38.210023180436174 12.371693537511694 78.43316555449883
lradius 17.485581586712783
lwrist 1.6341233060485645
lhand -27.86267423368377 21.014845185708904
lfingers 7.12502
lthumb -1.23344026648125 50.3907732351384
rclavicle 1.4850006220789046e-16 2.381745484949564e-16
rhumerus -21.537929538601084 -13.461766300483614 -79.75579108380936
rradius 30.909342438320873
rwrist -0.057230248471161094
rhand -18.9352717287535 23.943132773529435
rfingers 7.12502
rthumb 7.085879581677049 -6.359768878102628
62
root 0.721785968076518 17.778514209534425 35.186491778847184 -3.3437469031296096 -4.757476817753812 -2.3936110267490562
lfemur -23.131197799620814 -2.7717943982937374 -17.52690377605229
ltibia 23.540038633103805
lfoot -0.03175243833231178 -5.137248149348251
ltoes 0.038267462758276416
rfemur 4.30169700682918 3.260245190089317 27.31405637252377
rtibia 44.23341788651877
rfoot 0.18736950593876855 4.359167828588025
rtoes -2.1412542623501927
lowerback 8.562002906225304 2.4104736159891984 3.283570973415691
upperback -0.09366233560656856 3.612404643739828 0.5596174627827952
thorax -4.923633020724777 1.7121205853501833 -2.1745174035075157
lowerneck -16.19829697895161 -2.9691618578331807 -2.1919133431069637
upperneck 21.944830858278266 -3.75492852949169 1.1929792434720667
head 9.591627806786995 -1.8236518922011313 0.41254022562961307
lclavicle 1.4596219494375043e-16 2.3620899898912674e-16
lhumerus -38.697701214271525 13.92242653617763 77.84018679917276
lradius 16.106032248054497
lwrist 0.6782352946536463
lhand -26.629913348678343 22.100617120257464
lfingers 7.12502
lthumb -0.2358219342285488 51.30030980403398
rclavicle 1.4756380763265278e-16 2.374545692997184e-16
rhumerus -22.953892111289335 -15.531976916257328 -78.91600217958016
rradius 30.241924079572126
rwrist 0.6451301523430151
rhand -18.63252778779921 23.925133278024948
rfingers 7.12502
rthumb 7.459252775986352 -6.3258805425750575
63
root 0.8069026685119399 17.838584389037297 35.94271611501955 -3.9898273540629283 -5.182071769354576 -0.732231207527994
lfemur -19.411317507273807 -2.2444010220060573 -20.386826455559515
ltibia 25.5053707467818
lfoot -1.3727745619889893 -5.105685050788411
ltoes 0.419190352371833
rfemur -0.7996774127717465 2.103881967336476 24.48960102358309
rtibia 53.687196262647724
rfoot 14.881283127806046 3.1576417504673566
rtoes 11.73415830204327
lowerback 9.026009325972177 2.385566391039757 1.6807040870860583
upperback -0.023137432367367955 3.416036036777083 0.23768855492080543
thorax -5.171016277082217 1.632407633826315 -1.7113899879551617
lowerneck -16.18639878983407 -2.9403221443524528 -2.151320768427085
upperneck 21.930152912520143 -3.7315315419174673 1.3034902683072
head 9.56852392581409 -1.8082920318098332 0.46534008316809145
lclavicle 1.4704313735153835e-16 2.3704002759636286e-16
lhumerus -38.40532241334335 13.56997492176958 78.05795656494661
lradius 16.16505478871693
lwrist 2.208653775486061
lhand -26.358986006775975 21.63656663590278
lfingers 7.12502
lthumb -0.001208088848024813 51.259388666473164
rclavicle 1.4785160161947108e-16 2.3767579293681754e-16
rhumerus -23.704398522781588 -16.72514206621781 -78.4878094198707
rradius 29.183122427328826
rwrist 1.6520320940153157
rhand -18.27942211839018 23.495826370796593
rfingers 7.12502
rthumb 7.855874568783891 -6.543859399928553
64
root 0.8681136154172047 17.874042383575144 36.57608064547298 -4.694586014742672 -4.860946943650343 0.14015023443875907
lfemur -15.429481757870814 -2.836854086609633 -22.346883822730202
ltibia 25.508356847595458
lfoot -3.8116862936981524 -3.9673681600067408
ltoes 1.5515269313862223
rfemur -6.832123844354857 0.2694937369538466 22.891337026596545
rtibia 62.41501173397435
rfoot 16.316729612631466 -2.760946288812363
rtoes 16.11880316212498
lowerback 9.50085777294976 1.9363469299431961 0.7019147630818982
upperback 0.17495470075385872 2.7420949731104205 0.12018980180325456
thorax -5.372862364609376 1.3232748202763496 -1.12362899612242
lowerneck -16.08477942927881 -2.872177175118277 -2.2287285245398065
upperneck 21.7491134654782 -3.631107241052734 1.3765396567750052
head 9.487355866516438 -1.7635136371503153 0.5454151427805993
lclavicle 1.4675960347530997e-16 2.3681996055415307e-16
lhumerus -37.3705532953442 12.291564892104168 78.57984778491345
lradius 16.52154319862396
lwrist 3.521036919043131
lhand -26.683425608777302 21.223604885503107
lfingers 7.12502
lthumb -0.30783063516935605 50.967072226326216
rclavicle 1.4755386741391017e-16 2.374468762634952e-16
rhumerus -23.88936010288836 -17.671328754135605 -78.26072317715733
rradius 27.749931543423745
rwrist 3.495921167721554
rhand -17.89826477607636 23.0683556044733
rfingers 7.12502
rthumb 8.296611673969394 -6.647149059563318
65
root 0.9074750546963392 17.887548746598785 37.018021549238995 -4.95269653021332 -4.37411458810759 0.4941649797900569
lfemur -11.661034656437822 -3.2271849300409676 -23.543264110777912
ltibia 25.114745621037628
lfoot -6.39197248604217 -2.4599686318191187
ltoes 1.4157266016926888
rfemur -12.603503462757503 -1.2623567304604073 22.257175941247027
rtibia 67.87964817098987
rfoot 7.225790930544774 -9.06434022272827
rtoes 11.945708856900085
lowerback 9.728968771834147 1.4118655911765237 0.1376845773570412
upperback 0.2813341729983915 1.9838922267860022 0.18112715811512903
thorax -5.4212252988148775 0.9640545792711862 -0.5599605297252848
lowerneck -16.035097448042542 -2.790994257642445 -2.3042746599563526
upperneck 21.667444893690288 -3.488528190276103 1.271771747223445
head 9.458405427100047 -1.7061821084222033 0.5535593150615615
lclavicle 1.4571631691877234e-16 2.360196772597075e-16
lhumerus -35.4667756316808 10.988703261700278 78.93589202615998
lradius 17.126901101157337
lwrist 2.8998646600146274
lhand -26.810548524198847 21.54121300476384
lfingers 7.12502
lthumb -0.44232837550971316 51.4653376636075
rclavicle 1.4876612927191465e-16 2.383790139056354e-16
rhumerus -24.16232067885942 -18.26758840323592 -78.06121770518249
rradius 26.731386254295156
rwrist 4.859318555551765
rhand -17.59225820314244 22.476620392410478
rfingers 7.12502
rthumb 8.62223903891948 -7.320769125620892
66
root 0.9277926790397126 17.850171020264753 37.32901758180175 -5.208104023907206 -3.7955507013564223 1.3239165126910233
lfemur -8.249284669069679 -3.563899695380409 -25.06084478148261
ltibia 24.823762702908827
lfoot -9.199918842571549 -0.608503796665925
ltoes 1.2875929951465688
rfemur -17.924298696319273 -2.4480009937998384 21.516580059226435
rtibia 69.65498756102224
rfoot 0.4971040525474031 -10.396586969400632
rtoes 10.117420625320165
lowerback 10.208554486373018 0.9015386483991017 -0.8412231249932747
upperback 0.356445615810841 1.1968831438805876 0.2326363666020579
thorax -5.645925853915681 0.5888912697391008 0.19694423531663596
lowerneck -15.97422469592775 -2.745839515905901 -2.445388281748248
upperneck 21.643223932763796 -3.3913170553524385 1.1929582548988629
head 9.455469104297832 -1.6692010959068542 0.569752349677189
lclavicle 1.44970151961596e-16 2.3545250177906614e-16
lhumerus -33.30345677128834 9.210553837756557 79.27090455742255
lradius 17.91350926999292
lwrist 3.610881230508223
lhand -27.40204778087237 21.17736684716467
lfingers 7.12502
lthumb -0.9342666669602788 51.2174304146553
rclavicle 1.4896257330540696e-16 2.3853008370118784e-16
rhumerus -24.82248795843847 -18.234946048379264 -77.96724984349619
rradius 26.349476190441028
rwrist 5.041478750290048
rhand -17.458134817912242 22.004908901368122
rfingers 7.12502
rthumb 8.734533060588886 -7.820321551561199
67
root 0.9215621834515989 17.801928176324942 37.72760031390173 -4.789096508305255 -3.3588782294506805 1.3881037901029496
lfemur -5.253419742553377 -3.4875667246921083 -25.740277522942577
ltibia 24.827506381740164
lfoot -11.37514853477672 1.4089405895972877
ltoes 0.6241611058533896
rfemur -22.859909700675704 -2.923933539689191 21.602871782596026
rtibia 67.75586067324264
rfoot -4.359595968480645 -8.933289352704486
rtoes 7.407939376334468
lowerback 10.545876608994059 0.4982188074151419 -1.35159591236831
upperback 0.34094490945186473 0.5866820755873524 0.4144457854942337
thorax -5.747458905913961 0.3092052298181516 0.8155145743461356
lowerneck -15.973861155378957 -2.756359164137502 -2.7353470301919938
upperneck 21.51280759316803 -3.370242748313071 1.3435850286693212
head 9.428882851796045 -1.6581224253935627 0.6799828366433576
lclavicle 1.4388638522378765e-16 2.34619527025505e-16
lhumerus -31.217504193924103 7.408401257850409 79.3603833006851
lradius 18.845821384680224
lwrist 4.591892888392886
lhand -28.25024683333923 20.279593532652292
lfingers 7.12502
lthumb -1.5835339857566273 50.50282646688978
rclavicle 1.4795406821022032e-16 2.3775463603070773e-16
rhumerus -25.588883134995193 -17.571207564569818 -78.00251829313409
rradius 26.47553981105812
rwrist 4.087384733985148
rhand -17.447071138355486 21.877269858677504
rfingers 7.12502
rthumb 8.66527889214596 -8.15598195129885
68
root 0.9033580670298178 17.787626136363844 38.35015302448279 -4.245560293609208 -2.895177417388976 1.4757523732313957
lfemur -1.6861470703396533 -3.2618163581971014 -26.31357465953005
ltibia 23.516152279736353
lfoot -11.937730405347672 2.2940818657471578
ltoes -0.6096823615846354
rfemur -26.277897415766425 -2.9072709179124994 21.715981890456156
rtibia 61.842137703197054
rfoot -7.362885014213171 -8.498712810411273
rtoes 1.7237216107611721
lowerback 10.790888933976387 0.07229768062374031 -1.7946563811532386
upperback 0.31137281483807355 -0.04766417708643511 0.6017511707318202
thorax -5.807181218920633 0.014353414576904089 1.4253053064251624
lowerneck -16.002557117215257 -2.783219009600423 -2.9920501263210424
upperneck 21.35891975630601 -3.38339593732933 1.5564260831405043
head 9.393662303199502 -1.661650417653579 0.7949284917617049
lclavicle 1.4430564192908787e-16 2.34940002670038e-16
lhumerus -29.128693021670223 5.449220999884693 79.32876883266954
lradius 20.03052606799046
lwrist 5.3699999473880995
lhand -28.976382823056397 20.160310400204693
lfingers 7.12502
lthumb -2.098231992540911 50.524352800914734
rclavicle 1.4784073165522372e-16 2.3766745727717533e-16
rhumerus -26.327067329092927 -16.849030622515365 -78.01800769012617
rradius 26.633499309698216
rwrist 3.3680810988215524
rhand -17.53657983676259 22.051119632776988
rfingers 7.12502
rthumb 8.514242807874085 -8.104401703911757
